# xmcd CD database file
#
# Track frame offsets:
#	150
#	18384
#	35236
#	60011
#	77188
#	94635
#	111282
#	128620
#	145531
#	156855
#	176002
#	195962
#	216167
#	240864
#
# Disc length: 3560 seconds
#
# Revision: 0
# Processed by: cddbd v1.5.2PL0 Copyright (c) Steve Scherf et al.
# Submitted via: CDex 1.70beta2
#
DISCID=aa0de60e
DTITLE=The Blues Guys and the Guinness Horns - In Groove
DYEAR=2018
DGENRE=Blues
TTITLE0=Just in Case
TTITLE1=Paradise
TTITLE2=The Boys Are Back in Town
TTITLE3=Strike Your Light
TTITLE4=The Heart of Rock and Roll
TTITLE5=Why Did You Do It
TTITLE6=Wild about You
TTITLE7=From my Arms
TTITLE8=Shake a Tail Feather
TTITLE9=Doggystyle
TTITLE10=Long Live Rock and Roll
TTITLE11=Dancing in the Moonlight
TTITLE12=Proud Mary
TTITLE13=Don't Tell me Lies
EXTD=YEAR: 2018
EXTT0=
EXTT1=
EXTT2=
EXTT3=
EXTT4=
EXTT5=
EXTT6=
EXTT7=
EXTT8=
EXTT9=
EXTT10=
EXTT11=
EXTT12=
EXTT13=
PLAYORDER=
